
<svg version="1.0" xmlns="http://www.w3.org/2000/svg"
 width="1500.000000pt" height="170.000000pt" viewBox="0 0 1500.000000 170.000000"
 preserveAspectRatio="xMidYMid meet">

<g transform="translate(0.000000,170.000000) scale(0.100000,-0.100000)"
fill="#dddddd" stroke="none">
<path d="M6740 1414 c0 -230 -1 -246 -17 -240 -10 3 -56 19 -103 35 -261 93
-533 -21 -649 -271 -52 -111 -65 -179 -64 -328 3 -374 193 -595 493 -577 101
6 163 27 258 91 38 25 72 46 76 46 3 0 6 -25 6 -55 l0 -55 185 0 185 0 -2 798
-3 797 -182 3 -183 2 0 -246z m-27 -462 l27 -12 -2 -282 -3 -283 -58 -29 c-40
-20 -78 -30 -125 -33 -187 -14 -266 80 -265 317 0 85 4 117 23 165 26 69 96
144 150 162 42 15 214 11 253 -5z"/>
<path d="M80 825 l0 -765 185 0 185 0 0 508 0 507 139 -325 139 -325 138 0
138 0 136 317 c74 174 139 320 143 324 4 4 7 -221 7 -499 l0 -507 195 0 195 0
-2 763 -3 762 -228 0 -228 0 -165 -370 c-91 -203 -169 -374 -173 -378 -4 -4
-84 162 -177 370 l-170 378 -227 3 -227 2 0 -765z"/>
<path d="M3530 1375 l0 -165 -75 0 -75 0 0 -125 0 -125 74 0 75 0 3 -332 c3
-311 5 -336 24 -384 44 -106 109 -159 235 -189 74 -17 254 -20 349 -5 109 18
100 5 100 146 0 138 4 133 -74 109 -75 -23 -156 -20 -197 8 -66 44 -69 59 -69
370 l0 277 170 0 170 0 0 125 0 125 -170 0 -170 0 0 165 0 165 -185 0 -185 0
0 -165z"/>
<path d="M2495 1236 c-145 -25 -257 -79 -345 -168 -109 -111 -162 -253 -163
-438 0 -177 42 -295 144 -405 113 -120 276 -181 515 -192 176 -8 295 9 472 69
l62 22 0 148 c0 173 1 171 -97 114 -32 -19 -94 -47 -138 -63 -71 -24 -95 -27
-205 -28 -146 0 -212 16 -282 69 -50 39 -87 102 -95 166 l-6 40 422 0 421 0 0
113 c0 140 -18 227 -66 317 -60 115 -158 189 -299 225 -86 22 -244 27 -340 11z
m169 -226 c101 -16 165 -89 166 -187 l0 -43 -235 0 -235 0 0 23 c0 69 50 151
112 183 25 13 85 29 123 33 6 0 36 -3 69 -9z"/>
<path d="M4925 1240 c-145 -23 -250 -74 -340 -164 -68 -69 -115 -150 -141
-246 -22 -81 -25 -290 -5 -370 24 -100 79 -200 145 -265 117 -116 256 -166
466 -167 215 -1 346 46 466 166 113 114 164 251 164 445 0 302 -151 514 -417
581 -91 24 -252 33 -338 20z m208 -262 c57 -17 110 -72 138 -143 20 -53 23
-77 24 -205 0 -142 -1 -146 -31 -211 -50 -104 -129 -148 -242 -135 -149 18
-216 127 -216 351 0 237 76 351 238 354 27 1 67 -4 89 -11z"/>
<path d="M7895 1240 c-145 -23 -250 -74 -340 -164 -68 -69 -115 -150 -141
-246 -22 -81 -25 -290 -5 -370 24 -100 79 -200 145 -265 117 -116 256 -166
466 -167 215 -1 346 46 466 166 113 114 164 251 164 445 0 251 -106 443 -298
540 -104 53 -322 82 -457 61z m208 -262 c57 -17 110 -72 138 -143 20 -53 23
-77 24 -205 0 -142 -1 -146 -31 -211 -50 -104 -129 -148 -242 -135 -149 18
-216 127 -216 351 0 237 76 351 238 354 27 1 67 -4 89 -11z"/>
<path d="M11445 1240 c-331 -52 -525 -277 -525 -610 0 -272 126 -459 368 -547
200 -73 497 -69 731 10 l96 32 3 147 c3 173 5 171 -101 113 -100 -55 -200 -85
-303 -92 -218 -14 -367 58 -408 198 -9 29 -16 59 -16 66 0 11 80 13 427 13
l426 0 -6 125 c-10 200 -46 303 -138 400 -59 62 -141 109 -230 130 -82 19
-246 27 -324 15z m211 -245 c17 -7 43 -26 58 -41 27 -29 56 -108 56 -151 l0
-23 -241 0 -241 0 7 43 c21 131 131 206 280 190 28 -3 64 -11 81 -18z"/>
<path d="M14245 1236 c-145 -25 -257 -79 -345 -168 -111 -112 -162 -251 -162
-438 -1 -178 41 -296 143 -405 113 -120 276 -181 515 -192 176 -8 295 9 472
69 l62 22 0 148 c0 173 1 171 -97 114 -32 -19 -94 -47 -138 -63 -71 -24 -95
-27 -205 -28 -146 0 -212 16 -282 69 -50 39 -87 102 -95 166 l-6 40 422 0 421
0 0 113 c0 140 -18 227 -66 317 -60 115 -158 189 -299 225 -86 22 -244 27
-340 11z m169 -226 c101 -16 165 -89 166 -187 l0 -43 -235 0 -235 0 0 23 c0
69 50 151 112 183 25 13 85 29 123 33 6 0 36 -3 69 -9z"/>
<path d="M9265 1224 c-147 -32 -282 -120 -343 -223 -20 -35 -27 -61 -30 -126
-6 -107 14 -167 75 -235 69 -77 151 -112 367 -155 183 -37 229 -52 240 -80 18
-49 -7 -91 -69 -115 -16 -7 -79 -12 -140 -12 -89 0 -127 5 -198 26 -88 26
-168 62 -219 97 -14 11 -36 19 -47 19 -21 0 -21 -3 -19 -152 l3 -151 55 -19
c151 -52 217 -62 410 -63 208 0 263 10 385 69 88 44 159 111 193 184 22 47 26
71 26 137 0 196 -108 291 -392 345 -240 46 -275 58 -292 101 -31 75 47 123
200 123 120 1 213 -22 327 -80 47 -24 92 -44 99 -44 11 0 14 29 14 144 l0 144
-41 16 c-23 10 -78 26 -123 37 -110 28 -380 35 -481 13z"/>
<path d="M12317 1198 c4 -7 103 -136 220 -287 138 -177 210 -277 205 -285 -7
-9 -401 -511 -435 -553 -7 -10 34 -13 201 -13 l211 0 123 170 c68 93 125 169
128 170 3 0 59 -76 125 -170 l120 -169 213 -1 c118 0 212 4 210 9 -1 4 -100
133 -218 285 -118 153 -216 281 -218 287 -3 7 346 458 426 552 15 17 5 17
-199 15 l-214 -3 -107 -150 c-60 -82 -114 -156 -122 -163 -11 -11 -33 14 -132
152 l-118 166 -214 0 c-168 0 -212 -3 -205 -12z"/>
<path d="M10260 260 l0 -200 190 0 190 0 0 200 0 200 -190 0 -190 0 0 -200z"/>
</g>
</svg>
